<svg width="76" height="40" viewBox="0 0 76 40" fill="none" xmlns="http://www.w3.org/2000/svg">
<path d="M20.94 30L19.08 14.16L14.7 30H11.22L6.81 14.25L5.04 30H1.47L4.02 7.86H7.62L12.99 25.59L18.33 7.86H21.93L24.54 30H20.94ZM34.3034 30.15C32.5634 30.15 31.1734 29.9 30.1334 29.4C29.0934 28.9 28.3234 28.06 27.8234 26.88C27.3434 25.7 27.1034 24.05 27.1034 21.93C27.1034 19.73 27.3434 18.04 27.8234 16.86C28.3234 15.68 29.0834 14.86 30.1034 14.4C31.1434 13.94 32.5434 13.71 34.3034 13.71C36.0834 13.71 37.4834 13.95 38.5034 14.43C39.5434 14.89 40.3134 15.72 40.8134 16.92C41.3134 18.1 41.5634 19.77 41.5634 21.93C41.5634 24.09 41.3234 25.76 40.8434 26.94C40.3634 28.12 39.6034 28.95 38.5634 29.43C37.5234 29.91 36.1034 30.15 34.3034 30.15ZM34.3034 27.18C35.2034 27.18 35.8934 27.06 36.3734 26.82C36.8734 26.58 37.2434 26.09 37.4834 25.35C37.7234 24.59 37.8434 23.44 37.8434 21.9C37.8434 20.38 37.7234 19.25 37.4834 18.51C37.2434 17.75 36.8734 17.26 36.3734 17.04C35.8934 16.8 35.2034 16.68 34.3034 16.68C33.4234 16.68 32.7334 16.8 32.2334 17.04C31.7534 17.26 31.3934 17.75 31.1534 18.51C30.9134 19.25 30.7934 20.38 30.7934 21.9C30.7934 23.44 30.9134 24.59 31.1534 25.35C31.3934 26.09 31.7534 26.58 32.2334 26.82C32.7334 27.06 33.4234 27.18 34.3034 27.18ZM42.8426 13.92H46.6526L50.6726 26.55L54.7826 13.92H58.5626L52.7126 30H48.4526L42.8426 13.92ZM67.5539 30C65.1139 30 63.5139 28.63 62.7539 25.89L59.4539 13.92H63.2939L66.2039 25.14C66.3839 25.68 66.6039 26.08 66.8639 26.34C67.1239 26.6 67.3439 26.76 67.5239 26.82C67.7239 26.88 67.9539 26.92 68.2139 26.94L71.5439 13.92H75.3239L70.1639 34.14L68.7239 37.11H65.6939L67.5539 30Z" fill="white"/>
<path d="M67.5 9C69.9853 9 72 6.98528 72 4.5C72 2.01472 69.9853 0 67.5 0C65.0147 0 63 2.01472 63 4.5C63 6.98528 65.0147 9 67.5 9Z" fill="#0578FF"/>
</svg>
